<svg xmlns="http://www.w3.org/2000/svg" version="1.1" xmlns:xlink="http://www.w3.org/1999/xlink" xmlns:svgjs="http://svgjs.dev/svgjs" width="1500" height="935" viewBox="0 0 1500 935"><g transform="matrix(1,0,0,1,-0.9090909090909918,0.3785425101214628)"><svg viewBox="0 0 396 247" data-background-color="#ffffff" preserveAspectRatio="xMidYMid meet" height="935" width="1500" xmlns="http://www.w3.org/2000/svg" xmlns:xlink="http://www.w3.org/1999/xlink"><g id="tight-bounds" transform="matrix(1,0,0,1,0.2400000000000091,-0.09999999999999432)"><svg viewBox="0 0 395.52 247.2" height="247.2" width="395.52"><g><svg></svg></g><g><svg viewBox="0 0 395.52 247.2" height="247.2" width="395.52"><g transform="matrix(1,0,0,1,75.54432,90.77263469443213)"><svg viewBox="0 0 244.43135999999998 65.65473061113575" height="65.65473061113575" width="244.43135999999998"><g><svg viewBox="0 0 244.43135999999998 65.65473061113575" height="65.65473061113575" width="244.43135999999998"><g><svg viewBox="0 0 244.43135999999998 65.65473061113575" height="65.65473061113575" width="244.43135999999998"><g><svg viewBox="0 0 244.43135999999998 65.65473061113575" height="65.65473061113575" width="244.43135999999998"><g id="textblocktransform"><svg viewBox="0 0 244.43135999999998 65.65473061113575" height="65.65473061113575" width="244.43135999999998" id="textblock"><g><svg viewBox="0 0 244.43135999999998 39.2165146452204" height="39.2165146452204" width="244.43135999999998"><g transform="matrix(1,0,0,1,0,0)"><svg width="244.43135999999998" viewBox="4.91 -37.99 239.8 38.480000000000004" height="39.2165146452204" data-palette-color="#eb4c60"><path d="M32.01-35.69L32.01 0 27.86 0 27.86-16.8 9.06-16.8 9.06 0 4.91 0 4.91-35.69 9.06-35.69 9.06-20.51 27.86-20.51 27.86-35.69 32.01-35.69ZM64.28-13.4L64.28-13.4Q64.28-6.86 60.98-3.19 57.69 0.49 51.88 0.49L51.88 0.49Q48.29 0.49 45.51-1.2 42.72-2.88 41.21-6.03 39.69-9.18 39.69-13.4L39.69-13.4Q39.69-19.95 42.97-23.6 46.24-27.25 52.05-27.25L52.05-27.25Q57.66-27.25 60.97-23.51 64.28-19.78 64.28-13.4ZM43.89-13.4L43.89-13.4Q43.89-8.28 45.94-5.59 48-2.91 51.98-2.91L51.98-2.91Q55.95-2.91 58.02-5.58 60.08-8.25 60.08-13.4L60.08-13.4Q60.08-18.51 58.02-21.15 55.95-23.8 51.93-23.8L51.93-23.8Q47.95-23.8 45.92-21.19 43.89-18.58 43.89-13.4ZM80.02-2.86L80.02-2.86Q81.1-2.86 82.1-3.02 83.1-3.17 83.69-3.34L83.69-3.34 83.69-0.24Q83.03 0.07 81.75 0.28 80.46 0.49 79.44 0.49L79.44 0.49Q71.67 0.49 71.67-7.69L71.67-7.69 71.67-23.61 67.84-23.61 67.84-25.56 71.67-27.25 73.38-32.96 75.73-32.96 75.73-26.76 83.49-26.76 83.49-23.61 75.73-23.61 75.73-7.86Q75.73-5.44 76.87-4.15 78.02-2.86 80.02-2.86ZM100.33 0.49L100.33 0.49Q94.4 0.49 90.97-3.13 87.54-6.74 87.54-13.16L87.54-13.16Q87.54-19.63 90.73-23.44 93.91-27.25 99.28-27.25L99.28-27.25Q104.31-27.25 107.24-23.94 110.17-20.63 110.17-15.21L110.17-15.21 110.17-12.65 91.74-12.65Q91.86-7.93 94.12-5.49 96.38-3.05 100.48-3.05L100.48-3.05Q104.8-3.05 109.03-4.86L109.03-4.86 109.03-1.25Q106.88-0.32 104.96 0.09 103.04 0.49 100.33 0.49ZM99.24-23.85L99.24-23.85Q96.01-23.85 94.1-21.75 92.18-19.65 91.84-15.94L91.84-15.94 105.83-15.94Q105.83-19.78 104.12-21.81 102.41-23.85 99.24-23.85ZM121.13-37.99L121.13 0 117.08 0 117.08-37.99 121.13-37.99ZM146.98-7.3L146.98-7.3Q146.98-3.56 144.2-1.54 141.42 0.49 136.39 0.49L136.39 0.49Q131.07 0.49 128.09-1.2L128.09-1.2 128.09-4.96Q130.02-3.98 132.23-3.42 134.44-2.86 136.49-2.86L136.49-2.86Q139.66-2.86 141.37-3.87 143.08-4.88 143.08-6.96L143.08-6.96Q143.08-8.52 141.72-9.63 140.37-10.74 136.44-12.26L136.44-12.26Q132.7-13.65 131.13-14.69 129.55-15.72 128.78-17.04 128.01-18.36 128.01-20.19L128.01-20.19Q128.01-23.46 130.68-25.35 133.34-27.25 137.98-27.25L137.98-27.25Q142.3-27.25 146.42-25.49L146.42-25.49 144.98-22.19Q140.95-23.85 137.68-23.85L137.68-23.85Q134.8-23.85 133.34-22.95 131.87-22.05 131.87-20.46L131.87-20.46Q131.87-19.38 132.42-18.63 132.97-17.87 134.19-17.19 135.41-16.5 138.88-15.21L138.88-15.21Q143.64-13.48 145.31-11.72 146.98-9.96 146.98-7.3ZM159.38-28.59L159.38-28.59Q159.38-26.9 160.26-25.38 161.14-23.85 163.27-21.7L163.27-21.7Q166.42-23.54 167.65-25.09 168.88-26.64 168.88-28.66L168.88-28.66Q168.88-30.54 167.62-31.73 166.37-32.91 164.27-32.91L164.27-32.91Q162.09-32.91 160.74-31.74 159.38-30.57 159.38-28.59ZM163.17-3.15L163.17-3.15Q169.05-3.15 172.93-6.91L172.93-6.91 162.27-17.26Q159.56-15.6 158.43-14.51 157.31-13.43 156.77-12.18 156.24-10.94 156.24-9.35L156.24-9.35Q156.24-6.49 158.13-4.82 160.02-3.15 163.17-3.15ZM152.04-9.25L152.04-9.25Q152.04-12.43 153.73-14.87 155.43-17.31 159.82-19.8L159.82-19.8Q157.75-22.12 157-23.32 156.26-24.51 155.82-25.81 155.38-27.1 155.38-28.49L155.38-28.49Q155.38-32.15 157.77-34.2 160.17-36.25 164.44-36.25L164.44-36.25Q168.39-36.25 170.66-34.22 172.93-32.18 172.93-28.54L172.93-28.54Q172.93-25.93 171.27-23.72 169.61-21.51 165.78-19.24L165.78-19.24 175.72-9.69Q177.08-11.21 177.9-13.24 178.72-15.28 179.28-17.7L179.28-17.7 183.38-17.7Q181.72-10.72 178.38-7.1L178.38-7.1 185.68 0 180.09 0 175.57-4.35Q172.69-1.76 169.71-0.63 166.73 0.49 163.07 0.49L163.07 0.49Q157.82 0.49 154.93-2.1 152.04-4.69 152.04-9.25ZM205.96-32.5L205.96-32.5Q200.08-32.5 196.67-28.58 193.27-24.66 193.27-17.85L193.27-17.85Q193.27-10.84 196.55-7.02 199.84-3.2 205.92-3.2L205.92-3.2Q209.65-3.2 214.44-4.54L214.44-4.54 214.44-0.9Q210.72 0.49 205.28 0.49L205.28 0.49Q197.39 0.49 193.11-4.3 188.83-9.08 188.83-17.9L188.83-17.9Q188.83-23.41 190.89-27.56 192.95-31.71 196.85-33.96 200.74-36.21 206.01-36.21L206.01-36.21Q211.63-36.21 215.83-34.16L215.83-34.16 214.07-30.59Q210.02-32.5 205.96-32.5ZM244.71-13.4L244.71-13.4Q244.71-6.86 241.41-3.19 238.11 0.49 232.3 0.49L232.3 0.49Q228.72 0.49 225.93-1.2 223.15-2.88 221.64-6.03 220.12-9.18 220.12-13.4L220.12-13.4Q220.12-19.95 223.39-23.6 226.66-27.25 232.48-27.25L232.48-27.25Q238.09-27.25 241.4-23.51 244.71-19.78 244.71-13.4ZM224.32-13.4L224.32-13.4Q224.32-8.28 226.37-5.59 228.42-2.91 232.4-2.91L232.4-2.91Q236.38-2.91 238.44-5.58 240.51-8.25 240.51-13.4L240.51-13.4Q240.51-18.51 238.44-21.15 236.38-23.8 232.35-23.8L232.35-23.8Q228.37-23.8 226.35-21.19 224.32-18.58 224.32-13.4Z" opacity="1" transform="matrix(1,0,0,1,0,0)" fill="#eb4c60" class="wordmark-text-0" data-fill-palette-color="primary" id="text-0"></path></svg></g></svg></g><g transform="matrix(1,0,0,1,0,48.47459255660545)"><svg viewBox="0 0 244.43135999999998 17.1801380545303" height="17.1801380545303" width="244.43135999999998"><g transform="matrix(1,0,0,1,0,0)"><svg width="244.43135999999998" viewBox="4.32 -34.99 615.1099999999999 43.24" height="17.1801380545303" data-palette-color="#eb4c60"><path d="M30.96-23.58L30.96-3.54 31.03-1.05Q31.03-0.42 30.66-0.07 30.3 0.27 29.82 0.27 29.35 0.27 29.06-0.05 28.78-0.37 28.78-0.85L28.78-0.85Q28.78-1.34 28.91-1.95L28.91-1.95Q29.08-2.71 29.08-5.74L29.08-5.74 29.08-23.56 16.8-23.56 16.8 0 4.32 0 4.32-34.55 16.8-34.55 16.8-25.34Q22.07-25.34 25.21-25.34 28.34-25.34 29.08-25.37L29.08-25.37 29.08-29.61Q29.08-31.74 29-32.37L29-32.37 28.91-33.11Q28.88-33.45 28.88-33.69L28.88-33.69Q28.88-34.81 29.91-34.81L29.91-34.81Q30.27-34.81 30.66-34.52 31.05-34.23 31.05-33.54L31.05-33.54 30.96-30.42 30.96-25.46 32.5-25.68Q32.93-25.68 33.23-25.43 33.52-25.17 33.52-24.76L33.52-24.76Q33.52-23.8 32.01-23.68L32.01-23.68Q31.74-23.63 31.48-23.62 31.23-23.61 30.96-23.58L30.96-23.58ZM37.64-13.18L37.64-13.18Q37.64-16.11 38.71-18.52 39.77-20.92 41.62-22.71L41.62-22.71Q45.63-26.51 51.68-26.51L51.68-26.51Q57.86-26.51 61.74-22.56L61.74-22.56Q65.45-18.82 65.45-13.11L65.45-13.11Q65.45-7.37 61.64-3.52L61.64-3.52Q57.71 0.46 51.58 0.46L51.58 0.46Q45.6 0.46 41.67-3.32L41.67-3.32Q37.64-7.23 37.64-13.18ZM50.9-24.71L50.9-1.37Q51.1-1.34 51.29-1.34L51.29-1.34 51.63-1.34Q56.56-1.34 59.91-4.39L59.91-4.39Q63.47-7.69 63.47-13.04L63.47-13.04Q63.47-18.26 60.13-21.51L60.13-21.51Q56.83-24.73 51.61-24.73L51.61-24.73 51.24-24.73Q51.07-24.73 50.9-24.71L50.9-24.71ZM99.97-19.34L99.97-19.34Q100.02-18.75 100.02-18.16L100.02-18.16 100.02 0 89.55 0 89.55-23.68Q89.28-23.8 88.91-23.8L88.91-23.8 88.13-23.8Q86.23-23.8 83.69-21.19L83.69-21.19Q82.91-20.39 82.2-19.41L82.2-19.41 82.2 0 71.7 0 71.7-26.07 82.2-26.07 82.2-22.14Q86.32-26.51 91.43-26.51L91.43-26.51Q98.02-26.51 99.56-21.63L99.56-21.63Q101.66-24.05 104.18-25.28 106.71-26.51 109.27-26.51L109.27-26.51Q113.64-26.51 115.74-24.44 117.84-22.36 117.84-18.16L117.84-18.16 117.84 0 107.37 0 107.37-23.71Q107.15-23.8 106.27-23.8 105.39-23.8 104.65-23.47 103.9-23.14 103.12-22.56L103.12-22.56Q101.41-21.31 99.97-19.34ZM148.48-5.93L148.48-5.93Q149.43-5.93 149.43-5.05L149.43-5.05Q149.43-4.39 148.58-3.49L148.58-3.49Q144.72 0.46 138.01 0.46L138.01 0.46Q131.97 0.46 127.85-3.17L127.85-3.17Q123.58-6.96 123.58-12.74L123.58-12.74Q123.58-18.65 127.43-22.46L127.43-22.46Q131.51-26.51 138.27-26.51L138.27-26.51Q143.69-26.51 147.38-23.22L147.38-23.22Q151.36-19.68 151.36-13.92L151.36-13.92Q151.36-13.09 151.31-12.16L151.31-12.16 135.2-12.16 135.2-1.68Q136.86-1.34 138.93-1.34L138.93-1.34Q143.33-1.34 146.43-4.25L146.43-4.25Q147.06-4.88 147.33-5.25L147.33-5.25Q147.89-5.93 148.48-5.93ZM141.96-13.94L141.96-24.27Q140.37-24.73 138.37-24.73 136.37-24.73 135.2-24.46L135.2-24.46 135.2-13.94 141.96-13.94ZM185.02 0L185.02-1.61Q181.9 0.46 178.09 0.46L178.09 0.46Q173.03 0.46 169.98-2.08L169.98-2.08Q166.81-4.69 166.81-9.33L166.81-9.33Q166.81-13.43 169.96-16.06L169.96-16.06Q173.18-18.73 178.43-18.73L178.43-18.73Q181.95-18.73 185.02-17.38L185.02-17.38 185.02-24.1Q182.8-24.73 181.1-24.73 179.41-24.73 178.23-24.58 177.06-24.44 176.01-24.15L176.01-24.15Q173.74-23.51 172.57-22.44L172.57-22.44Q171.89-21.8 171.33-21.8 170.76-21.8 170.47-22.08 170.18-22.36 170.18-22.71 170.18-23.05 170.3-23.33 170.42-23.61 170.76-23.9L170.76-23.9Q171.5-24.54 173.21-25.17L173.21-25.17Q176.75-26.51 180.31-26.51L180.31-26.51Q191.15-26.51 194.15-21.34L194.15-21.34Q195.47-19.04 195.47-15.31L195.47-15.31 195.47 0 185.02 0ZM185.02-3.71L185.02-15.48Q181.95-16.97 178.89-16.97L178.89-16.97Q178.41-16.97 177.97-16.89L177.97-16.89 177.97-1.37Q178.09-1.34 178.23-1.34 178.38-1.34 178.53-1.34L178.53-1.34Q181.87-1.34 185.02-3.71L185.02-3.71ZM211.44 1.1L198.98-26.07 210.04-26.07 216.29-12.94 223.67-27.2 231.36-12.77 234.85-20.68Q236.12-23.58 236.37-24.72 236.63-25.85 236.97-26.18 237.31-26.51 237.78-26.51 238.24-26.51 238.52-26.17 238.8-25.83 238.8-25.57 238.8-25.32 238.77-25.09 238.73-24.85 238.56-24.35 238.39-23.85 238-23L238-23 227.48 1.1 219.32-14.5 211.44 1.1ZM259.38 0L259.38-1.61Q256.26 0.46 252.45 0.46L252.45 0.46Q247.39 0.46 244.34-2.08L244.34-2.08Q241.17-4.69 241.17-9.33L241.17-9.33Q241.17-13.43 244.32-16.06L244.32-16.06Q247.54-18.73 252.79-18.73L252.79-18.73Q256.31-18.73 259.38-17.38L259.38-17.38 259.38-24.1Q257.16-24.73 255.46-24.73 253.77-24.73 252.59-24.58 251.42-24.44 250.37-24.15L250.37-24.15Q248.1-23.51 246.93-22.44L246.93-22.44Q246.25-21.8 245.69-21.8 245.12-21.8 244.83-22.08 244.54-22.36 244.54-22.71 244.54-23.05 244.66-23.33 244.78-23.61 245.12-23.9L245.12-23.9Q245.86-24.54 247.57-25.17L247.57-25.17Q251.11-26.51 254.67-26.51L254.67-26.51Q265.51-26.51 268.51-21.34L268.51-21.34Q269.83-19.04 269.83-15.31L269.83-15.31 269.83 0 259.38 0ZM259.38-3.71L259.38-15.48Q256.31-16.97 253.25-16.97L253.25-16.97Q252.77-16.97 252.33-16.89L252.33-16.89 252.33-1.37Q252.45-1.34 252.59-1.34 252.74-1.34 252.89-1.34L252.89-1.34Q256.23-1.34 259.38-3.71L259.38-3.71ZM282.01 5.76L282.01 5.76Q283.5 5.3 284.09 4.57L284.09 4.57Q284.92 3.59 286.09 1.05L286.09 1.05 286.65-0.24 273.34-26.07 284.45-26.07 291.39-11.33 295.39-20.68Q296.49-23.24 296.83-24.58 297.17-25.93 297.5-26.22 297.83-26.51 298.31-26.51 298.78-26.51 299.05-26.22 299.32-25.93 299.32-25.63 299.32-25.34 299.26-25.01 299.2-24.68 299.02-24.13 298.83-23.58 298.49-22.75L298.49-22.75 288.36 0.73Q286.55 4.98 284.89 6.71L284.89 6.71Q283.48 8.25 282.02 8.25 280.57 8.25 280.57 7.24 280.57 6.23 282.01 5.76ZM330.52-24.19L330.52-24.19 327.9-24.29 325.19-24.29 325.19 0 314.7 0 314.72-24.29 314.33-24.29 312.01-24.19Q310.57-24.19 310.57-25.18 310.57-26.17 311.89-26.17L311.89-26.17 314.79-26.07Q315.31-30.49 318.73-32.84L318.73-32.84Q321.85-34.99 326.9-34.99L326.9-34.99Q331.64-34.99 333.42-33.11L333.42-33.11Q333.91-32.59 333.91-32.13L333.91-32.13Q333.91-31.05 332.81-31.05L332.81-31.05Q332.27-31.05 331.76-31.42L331.76-31.42 330.88-32.03Q329.47-33.08 327.83-33.18L327.83-33.18Q327.39-33.2 326.92-33.2 326.44-33.2 326.02-33.15 325.61-33.11 325.19-33.06L325.19-33.06 325.19-26.07 327.32-26.07 330.59-26.17Q331.91-26.17 331.91-25.18 331.91-24.19 330.52-24.19ZM335.08 0L335.08-26.07 345.58-26.07 345.58-18.41Q347.26-22.58 349.2-24.55 351.14-26.51 353.1-26.51L353.1-26.51Q354.2-26.51 354.84-25.94 355.49-25.37 355.49-24.66 355.49-23.95 355.29-23.54 355.1-23.12 354.78-22.83L354.78-22.83Q354.12-22.22 353.54-22.22L353.54-22.22Q352.61-22.22 352.17-22.41L352.17-22.41Q351.41-22.75 350.83-22.75 350.24-22.75 349.34-21.81 348.43-20.87 347.6-19.21L347.6-19.21Q345.58-15.16 345.58-10.42L345.58-10.42 345.58 0 335.08 0ZM356.39-13.18L356.39-13.18Q356.39-16.11 357.45-18.52 358.51-20.92 360.37-22.71L360.37-22.71Q364.37-26.51 370.43-26.51L370.43-26.51Q376.61-26.51 380.49-22.56L380.49-22.56Q384.2-18.82 384.2-13.11L384.2-13.11Q384.2-7.37 380.39-3.52L380.39-3.52Q376.46 0.46 370.33 0.46L370.33 0.46Q364.35 0.46 360.42-3.32L360.42-3.32Q356.39-7.23 356.39-13.18ZM369.65-24.71L369.65-1.37Q369.84-1.34 370.04-1.34L370.04-1.34 370.38-1.34Q375.31-1.34 378.66-4.39L378.66-4.39Q382.22-7.69 382.22-13.04L382.22-13.04Q382.22-18.26 378.88-21.51L378.88-21.51Q375.58-24.73 370.36-24.73L370.36-24.73 369.99-24.73Q369.82-24.73 369.65-24.71L369.65-24.71ZM418.72-19.34L418.72-19.34Q418.77-18.75 418.77-18.16L418.77-18.16 418.77 0 408.29 0 408.29-23.68Q408.02-23.8 407.66-23.8L407.66-23.8 406.88-23.8Q404.97-23.8 402.43-21.19L402.43-21.19Q401.65-20.39 400.94-19.41L400.94-19.41 400.94 0 390.45 0 390.45-26.07 400.94-26.07 400.94-22.14Q405.07-26.51 410.17-26.51L410.17-26.51Q416.76-26.51 418.3-21.63L418.3-21.63Q420.4-24.05 422.93-25.28 425.46-26.51 428.02-26.51L428.02-26.51Q432.39-26.51 434.49-24.44 436.59-22.36 436.59-18.16L436.59-18.16 436.59 0 426.11 0 426.11-23.71Q425.9-23.8 425.02-23.8 424.14-23.8 423.39-23.47 422.65-23.14 421.87-22.56L421.87-22.56Q420.16-21.31 418.72-19.34ZM475.65-26.51L475.65-26.51Q484.24-26.51 484.24-18.16L484.24-18.16 484.24 0 473.74 0 473.74-23.75Q473.3-24.05 472.58-24.05 471.86-24.05 471.08-23.71 470.3-23.36 469.44-22.75L469.44-22.75Q467.61-21.41 466.2-19.38L466.2-19.38 466.2 0 455.7 0 455.7-34.55 466.2-34.55 466.2-21.95Q470.37-26.51 475.65-26.51ZM489.97-13.18L489.97-13.18Q489.97-16.11 491.04-18.52 492.1-20.92 493.95-22.71L493.95-22.71Q497.96-26.51 504.01-26.51L504.01-26.51Q510.19-26.51 514.07-22.56L514.07-22.56Q517.78-18.82 517.78-13.11L517.78-13.11Q517.78-7.37 513.97-3.52L513.97-3.52Q510.04 0.46 503.92 0.46L503.92 0.46Q497.93 0.46 494-3.32L494-3.32Q489.97-7.23 489.97-13.18ZM503.23-24.71L503.23-1.37Q503.43-1.34 503.62-1.34L503.62-1.34 503.96-1.34Q508.9-1.34 512.24-4.39L512.24-4.39Q515.8-7.69 515.8-13.04L515.8-13.04Q515.8-18.26 512.46-21.51L512.46-21.51Q509.16-24.73 503.94-24.73L503.94-24.73 503.57-24.73Q503.4-24.73 503.23-24.71L503.23-24.71ZM552.3-19.34L552.3-19.34Q552.35-18.75 552.35-18.16L552.35-18.16 552.35 0 541.88 0 541.88-23.68Q541.61-23.8 541.24-23.8L541.24-23.8 540.46-23.8Q538.56-23.8 536.02-21.19L536.02-21.19Q535.24-20.39 534.53-19.41L534.53-19.41 534.53 0 524.03 0 524.03-26.07 534.53-26.07 534.53-22.14Q538.65-26.51 543.76-26.51L543.76-26.51Q550.35-26.51 551.89-21.63L551.89-21.63Q553.99-24.05 556.51-25.28 559.04-26.51 561.6-26.51L561.6-26.51Q565.97-26.51 568.07-24.44 570.17-22.36 570.17-18.16L570.17-18.16 570.17 0 559.7 0 559.7-23.71Q559.48-23.8 558.6-23.8 557.72-23.8 556.98-23.47 556.23-23.14 555.45-22.56L555.45-22.56Q553.74-21.31 552.3-19.34ZM600.81-5.93L600.81-5.93Q601.76-5.93 601.76-5.05L601.76-5.05Q601.76-4.39 600.91-3.49L600.91-3.49Q597.05 0.46 590.34 0.46L590.34 0.46Q584.31 0.46 580.18-3.17L580.18-3.17Q575.91-6.96 575.91-12.74L575.91-12.74Q575.91-18.65 579.76-22.46L579.76-22.46Q583.84-26.51 590.6-26.51L590.6-26.51Q596.02-26.51 599.71-23.22L599.71-23.22Q603.69-19.68 603.69-13.92L603.69-13.92Q603.69-13.09 603.64-12.16L603.64-12.16 587.53-12.16 587.53-1.68Q589.19-1.34 591.26-1.34L591.26-1.34Q595.66-1.34 598.76-4.25L598.76-4.25Q599.39-4.88 599.66-5.25L599.66-5.25Q600.22-5.93 600.81-5.93ZM594.29-13.94L594.29-24.27Q592.7-24.73 590.7-24.73 588.7-24.73 587.53-24.46L587.53-24.46 587.53-13.94 594.29-13.94ZM608.4-2.66L608.4-2.66Q608.03-3.64 608.03-4.71 608.03-5.79 608.46-6.68 608.89-7.57 609.67-8.25L609.67-8.25Q611.33-9.74 613.82-9.74L613.82-9.74Q616.38-9.74 617.97-8.06L617.97-8.06Q619.43-6.52 619.43-4.44L619.43-4.44Q619.43-2.37 617.77-0.98L617.77-0.98Q616.07 0.46 613.67 0.46L613.67 0.46Q609.62 0.46 608.4-2.66Z" opacity="1" transform="matrix(1,0,0,1,0,0)" fill="#eb4c60" class="slogan-text-1" data-fill-palette-color="secondary" id="text-1"></path></svg></g></svg></g></svg></g></svg></g></svg></g></svg></g></svg></g><g><path d="M0 123.6c0-68.262 55.338-123.6 123.6-123.6 55.205 0 101.957 36.192 117.823 86.144h-1.858c-15.802-48.959-61.748-84.375-115.965-84.376-67.286 0-121.832 54.546-121.832 121.832 0 67.286 54.546 121.832 121.832 121.832 54.218 0 100.164-35.416 115.965-84.376h1.858c-15.866 49.951-62.618 86.144-117.823 86.144-68.262 0-123.6-55.338-123.6-123.6z" fill="#eb4c60" stroke="transparent" data-fill-palette-color="tertiary"></path></g></svg></g><defs></defs></svg><rect width="395.52" height="247.2" fill="none" stroke="none" visibility="hidden"></rect></g></svg></g></svg>