<svg width="14" height="14" viewBox="0 0 14 14" fill="none" xmlns="http://www.w3.org/2000/svg">
<path d="M6.83872 0.248535H7.54185C8.89185 0.248535 9.14497 0.259785 9.78622 0.28791C10.5062 0.32166 10.9956 0.43416 11.4231 0.60291C11.8675 0.77166 12.2443 1.00791 12.6212 1.37916C12.9587 1.71666 13.2287 2.12729 13.3975 2.57729L13.4087 2.61104C13.5662 3.02729 13.6787 3.49979 13.7125 4.18604L13.7181 4.41104C13.7462 4.98479 13.7518 5.32791 13.7518 6.88604V7.40353C13.7518 8.86603 13.7406 9.11916 13.7125 9.78291C13.701 10.3424 13.5945 10.8959 13.3975 11.4198C13.2287 11.8698 12.9643 12.2804 12.6212 12.6179C12.2831 12.9608 11.8742 13.2257 11.4231 13.3942L11.3893 13.4054C10.9731 13.5629 10.495 13.6754 9.81435 13.7035L9.58935 13.7148C9.0156 13.7429 8.67247 13.7485 7.11435 13.7485H6.59685C5.80351 13.7584 5.01005 13.7452 4.21747 13.7092C3.65794 13.6977 3.10443 13.5911 2.5806 13.3942C2.1306 13.2254 1.71997 12.961 1.38247 12.6179C1.03959 12.2798 0.774668 11.8709 0.606221 11.4198L0.594971 11.386C0.409154 10.8809 0.306569 10.349 0.291221 9.81104L0.285596 9.60291C0.253507 8.78958 0.242253 7.97557 0.251846 7.16166V6.59916C0.251846 5.12541 0.263096 4.87791 0.291221 4.21416C0.324971 3.50541 0.437471 3.01604 0.600596 2.59416L0.606221 2.57729C0.774971 2.12729 1.03935 1.71666 1.38247 1.37916C1.72058 1.03628 2.12948 0.771357 2.5806 0.60291L2.61435 0.59166C3.11945 0.405843 3.65137 0.303258 4.18935 0.28791L4.39747 0.282285C4.97122 0.248535 5.30872 0.248535 6.83872 0.248535ZM7.3506 1.46354H6.6531C5.35935 1.46354 5.01622 1.46916 4.50997 1.49166L4.27372 1.50291C3.6156 1.53104 3.26122 1.64354 3.01935 1.73354C2.70435 1.85729 2.47935 2.00354 2.2431 2.23979C2.0181 2.47041 1.86622 2.68979 1.7481 2.99916L1.73122 3.03291C1.58743 3.42989 1.51137 3.84822 1.50622 4.27041L1.49497 4.52354C1.47247 5.02979 1.46685 5.38416 1.46685 6.73979V7.34729C1.46685 8.83229 1.4781 9.06291 1.50622 9.72666V9.76604C1.53997 10.4017 1.64685 10.7448 1.74247 10.981C1.8606 11.296 2.00685 11.521 2.24872 11.7573C2.47372 11.9823 2.69872 12.1342 3.00247 12.2523L3.03622 12.2692C3.4332 12.413 3.85153 12.489 4.27372 12.4942L4.52685 12.5054C5.0331 12.5279 5.38747 12.5335 6.7431 12.5335H7.3506C8.8356 12.5335 9.06622 12.5223 9.72997 12.4942H9.76935C10.1848 12.4849 10.5957 12.405 10.9843 12.2579C11.2768 12.151 11.5412 11.9767 11.7606 11.7517C11.9856 11.5267 12.1375 11.3017 12.2556 10.9979L12.2725 10.9642C12.4163 10.5672 12.4923 10.1489 12.4975 9.72666L12.5087 9.47353C12.5312 8.96729 12.5368 8.61291 12.5368 7.25728V6.64416C12.5368 5.16478 12.5256 4.93416 12.4975 4.27041V4.23104C12.4882 3.81556 12.4083 3.4047 12.2612 3.01604C12.1543 2.72354 11.98 2.45916 11.755 2.23979C11.5429 2.02168 11.2856 1.85272 11.0012 1.74479L10.9675 1.72791C10.5778 1.58587 10.1672 1.50983 9.75247 1.50291L9.49372 1.49166C8.98747 1.46916 8.64997 1.46354 7.35622 1.46354H7.3506ZM7.00185 3.53354C7.92082 3.53354 8.80216 3.8986 9.45197 4.54841C10.1018 5.19822 10.4668 6.07956 10.4668 6.99854C10.4668 7.91751 10.1018 8.79885 9.45197 9.44866C8.80216 10.0985 7.92082 10.4635 7.00185 10.4635C6.08287 10.4635 5.20153 10.0985 4.55172 9.44866C3.90191 8.79885 3.53685 7.91751 3.53685 6.99854C3.53685 6.07956 3.90191 5.19822 4.55172 4.54841C5.20153 3.8986 6.08287 3.53354 7.00185 3.53354ZM7.00185 4.74854C6.40511 4.74854 5.83281 4.98559 5.41086 5.40754C4.9889 5.8295 4.75185 6.4018 4.75185 6.99854C4.75185 7.59527 4.9889 8.16757 5.41086 8.58953C5.83281 9.01148 6.40511 9.24854 7.00185 9.24854C7.59858 9.24854 8.17088 9.01148 8.59284 8.58953C9.01479 8.16757 9.25185 7.59527 9.25185 6.99854C9.25185 6.4018 9.01479 5.8295 8.59284 5.40754C8.17088 4.98559 7.59858 4.74854 7.00185 4.74854ZM10.6018 2.58291C10.8167 2.58291 11.0227 2.66825 11.1746 2.82015C11.3265 2.97206 11.4118 3.17808 11.4118 3.39291C11.4118 3.60774 11.3265 3.81376 11.1746 3.96567C11.0227 4.11757 10.8167 4.20291 10.6018 4.20291C10.387 4.20291 10.181 4.11757 10.0291 3.96567C9.87718 3.81376 9.79185 3.60774 9.79185 3.39291C9.79185 3.17808 9.87718 2.97206 10.0291 2.82015C10.181 2.66825 10.387 2.58291 10.6018 2.58291Z" fill="white"/>
</svg>
