<svg width="14" height="10" viewBox="0 0 14 10" fill="none" xmlns="http://www.w3.org/2000/svg">
<path d="M8.18687 0.340923C7.70562 0.598925 7.32071 1.00563 7.08957 1.50035C6.85843 1.99506 6.79347 2.55126 6.90437 3.08592C5.91688 3.0424 4.95014 2.78796 4.06917 2.33971C3.1882 1.89146 2.4134 1.25979 1.79688 0.487173C1.62913 0.754869 1.5161 1.05316 1.46433 1.3648C1.41256 1.67644 1.42306 1.99525 1.49525 2.3028C1.56743 2.61036 1.69985 2.90056 1.88486 3.15663C2.06987 3.4127 2.3038 3.62956 2.57313 3.79467C2.185 3.79467 1.79687 3.72155 1.44812 3.54717C1.46177 4.11216 1.66244 4.65667 2.01871 5.09539C2.37498 5.5341 2.86671 5.84225 3.41688 5.97155C3.04975 6.0711 2.66431 6.08267 2.29188 6.0053C2.46218 6.5017 2.77818 6.93523 3.19862 7.24931C3.61907 7.56339 4.12443 7.74343 4.64875 7.76592C4.13933 8.18657 3.54673 8.49473 2.90982 8.6702C2.2729 8.84566 1.60609 8.88446 0.953125 8.78405C2.04037 9.51013 3.30929 9.9171 4.61603 9.95881C5.92276 10.0005 7.21505 9.67531 8.34639 9.02005C9.47773 8.36478 10.4029 7.40568 11.0169 6.25145C11.631 5.09723 11.9094 3.79406 11.8206 2.48967C12.315 2.14623 12.7326 1.70374 13.0469 1.1903C12.6033 1.40421 12.1287 1.54659 11.6406 1.61217C12.1686 1.28953 12.5668 0.791886 12.7656 0.205923C12.2762 0.487173 11.7475 0.695299 11.185 0.802174C10.8024 0.409593 10.3027 0.151827 9.76101 0.0676336C9.21933 -0.0165598 8.66496 0.0773694 8.18125 0.335299L8.18687 0.340923Z" fill="white"/>
</svg>
