<svg width="16" height="16" viewBox="0 0 16 16" fill="none" xmlns="http://www.w3.org/2000/svg">
<path d="M15.6251 1.87496C15.5926 1.72759 15.5312 1.58811 15.4445 1.46454C15.3578 1.34098 15.2476 1.23577 15.1201 1.15496C14.9926 1.07278 14.85 1.01676 14.7007 0.990147C14.5513 0.963538 14.3982 0.966874 14.2501 0.999961L10.5001 1.83496L5.50012 0.834961L1.25012 1.77996C0.9948 1.83589 0.766301 1.97748 0.60258 2.18122C0.438859 2.38497 0.349772 2.63859 0.350119 2.89996V13.875C0.348945 14.0683 0.396975 14.2588 0.489691 14.4285C0.582407 14.5982 0.716762 14.7415 0.880119 14.845C1.00763 14.9271 1.15021 14.9832 1.29956 15.0098C1.44892 15.0364 1.60207 15.033 1.75012 15L5.50012 14.165L10.5001 15.165L14.7451 14.22C15.0004 14.164 15.2289 14.0224 15.3927 13.8187C15.5564 13.615 15.6455 13.3613 15.6451 13.1V2.12496C15.6443 2.04078 15.6342 1.95694 15.6151 1.87496H15.6251ZM6.25012 12.99L5.49512 12.84L4.75012 13V2.32996L5.50512 2.16496L6.25012 2.31496V12.985V12.99ZM11.2501 13.67L10.4951 13.835L9.75012 13.685V3.00996L10.5051 3.15996L11.2501 2.99996H11.2551V13.67H11.2501Z" fill="white"/>
</svg>
